<?xml version="1.0" encoding="UTF-8" standalone="no"?>
<svg
   width="512"
   height="512"
   viewBox="0 0 512 512"
   version="1.1"
   id="svg14"
   sodipodi:docname="bed.svg"
   inkscape:version="1.2 (1:1.2+202205211824+da316b6974)"
   xmlns:inkscape="http://www.inkscape.org/namespaces/inkscape"
   xmlns:sodipodi="http://sodipodi.sourceforge.net/DTD/sodipodi-0.dtd"
   xmlns="http://www.w3.org/2000/svg"
   xmlns:svg="http://www.w3.org/2000/svg">
  <defs
     id="defs18" />
  <sodipodi:namedview
     id="namedview16"
     pagecolor="#ffffff"
     bordercolor="#000000"
     borderopacity="0.25"
     inkscape:showpageshadow="2"
     inkscape:pageopacity="0.0"
     inkscape:pagecheckerboard="0"
     inkscape:deskcolor="#d1d1d1"
     showgrid="false"
     inkscape:zoom="0.92382812"
     inkscape:cx="241.92812"
     inkscape:cy="256.54123"
     inkscape:window-width="1366"
     inkscape:window-height="704"
     inkscape:window-x="0"
     inkscape:window-y="0"
     inkscape:window-maximized="1"
     inkscape:current-layer="svg14" />
  <title
     id="title2">ionicons-v5-g</title>
  <path
     d="M384,240H96V136a40.12,40.12,0,0,1,40-40H376a40.12,40.12,0,0,1,40,40V240Z"
     style="fill:none;stroke:#00001a;stroke-linecap:round;stroke-linejoin:round;stroke-width:32px;stroke-opacity:0.93333334"
     id="path4" />
  <path
     d="M48,416V304a64.19,64.19,0,0,1,64-64H400a64.19,64.19,0,0,1,64,64V416"
     style="fill:none;stroke:#00001a;stroke-linecap:round;stroke-linejoin:round;stroke-width:32px;stroke-opacity:0.93333334"
     id="path6" />
  <path
     d="M48,416v-8a24.07,24.07,0,0,1,24-24H440a24.07,24.07,0,0,1,24,24v8"
     style="fill:none;stroke:#00001a;stroke-linecap:round;stroke-linejoin:round;stroke-width:32px;stroke-opacity:0.93333334"
     id="path8" />
  <path
     d="M112,240V224a32.09,32.09,0,0,1,32-32h80a32.09,32.09,0,0,1,32,32v16"
     style="fill:none;stroke:#00001a;stroke-linecap:round;stroke-linejoin:round;stroke-width:32px;stroke-opacity:0.93333334"
     id="path10" />
  <path
     d="M256,240V224a32.09,32.09,0,0,1,32-32h80a32.09,32.09,0,0,1,32,32v16"
     style="fill:none;stroke:#00001a;stroke-linecap:round;stroke-linejoin:round;stroke-width:32px;stroke-opacity:0.93333334"
     id="path12" />
</svg>
