<?xml version="1.0" encoding="UTF-8" standalone="no"?>
<svg
   width="512"
   height="512"
   viewBox="0 0 512 512"
   version="1.1"
   id="svg10"
   sodipodi:docname="mng_wallet.svg"
   inkscape:version="1.2 (1:1.2+202205211824+da316b6974)"
   xmlns:inkscape="http://www.inkscape.org/namespaces/inkscape"
   xmlns:sodipodi="http://sodipodi.sourceforge.net/DTD/sodipodi-0.dtd"
   xmlns="http://www.w3.org/2000/svg"
   xmlns:svg="http://www.w3.org/2000/svg">
  <defs
     id="defs14" />
  <sodipodi:namedview
     id="namedview12"
     pagecolor="#ffffff"
     bordercolor="#000000"
     borderopacity="0.25"
     inkscape:showpageshadow="2"
     inkscape:pageopacity="0.0"
     inkscape:pagecheckerboard="0"
     inkscape:deskcolor="#d1d1d1"
     showgrid="false"
     inkscape:zoom="0.92382812"
     inkscape:cx="241.92812"
     inkscape:cy="256.54123"
     inkscape:window-width="1366"
     inkscape:window-height="704"
     inkscape:window-x="0"
     inkscape:window-y="0"
     inkscape:window-maximized="1"
     inkscape:current-layer="svg10" />
  <title
     id="title2">ionicons-v5-r</title>
  <path
     d="M95.5,104h320a87.73,87.73,0,0,1,11.18.71,66,66,0,0,0-77.51-55.56L86,94.08l-.3,0a66,66,0,0,0-41.07,26.13A87.57,87.57,0,0,1,95.5,104Z"
     id="path4"
     style="fill:#2f2fff;fill-opacity:1" />
  <path
     d="M415.5,128H95.5a64.07,64.07,0,0,0-64,64V384a64.07,64.07,0,0,0,64,64h320a64.07,64.07,0,0,0,64-64V192A64.07,64.07,0,0,0,415.5,128ZM368,320a32,32,0,1,1,32-32A32,32,0,0,1,368,320Z"
     id="path6"
     style="fill:#2f2fff;fill-opacity:1" />
  <path
     d="M32,259.5V160c0-21.67,12-58,53.65-65.87C121,87.5,156,87.5,156,87.5s23,16,4,16S141.5,128,160,128s0,23.5,0,23.5L85.5,236Z"
     id="path8"
     style="fill:#2f2fff;fill-opacity:1" />
</svg>
