<?xml version="1.0" encoding="UTF-8" standalone="no"?>
<svg
   width="512"
   height="512"
   viewBox="0 0 512 512"
   version="1.1"
   id="svg8"
   sodipodi:docname="footer_location.svg"
   inkscape:version="1.2 (1:1.2+202205211824+da316b6974)"
   xmlns:inkscape="http://www.inkscape.org/namespaces/inkscape"
   xmlns:sodipodi="http://sodipodi.sourceforge.net/DTD/sodipodi-0.dtd"
   xmlns="http://www.w3.org/2000/svg"
   xmlns:svg="http://www.w3.org/2000/svg">
  <defs
     id="defs12" />
  <sodipodi:namedview
     id="namedview10"
     pagecolor="#ffffff"
     bordercolor="#000000"
     borderopacity="0.25"
     inkscape:showpageshadow="2"
     inkscape:pageopacity="0.0"
     inkscape:pagecheckerboard="0"
     inkscape:deskcolor="#d1d1d1"
     showgrid="false"
     inkscape:zoom="0.92382812"
     inkscape:cx="241.92812"
     inkscape:cy="256.54123"
     inkscape:window-width="1366"
     inkscape:window-height="704"
     inkscape:window-x="0"
     inkscape:window-y="0"
     inkscape:window-maximized="1"
     inkscape:current-layer="svg8" />
  <title
     id="title2">ionicons-v5-n</title>
  <circle
     cx="256"
     cy="192"
     r="32"
     id="circle4"
     style="fill:#2e2eff;fill-opacity:1" />
  <path
     d="M256,32C167.78,32,96,100.65,96,185c0,40.17,18.31,93.59,54.42,158.78,29,52.34,62.55,99.67,80,123.22a31.75,31.75,0,0,0,51.22,0c17.42-23.55,51-70.88,80-123.22C397.69,278.61,416,225.19,416,185,416,100.65,344.22,32,256,32Zm0,224a64,64,0,1,1,64-64A64.07,64.07,0,0,1,256,256Z"
     id="path6"
     style="fill:#2e2eff;fill-opacity:1" />
</svg>
