<?xml version="1.0" encoding="UTF-8" standalone="no"?>
<!-- Generator: Adobe Illustrator 19.0.0, SVG Export Plug-In . SVG Version: 6.00 Build 0)  -->

<svg
   version="1.1"
   id="Capa_1"
   x="0px"
   y="0px"
   viewBox="0 0 60.025 60.025"
   style="enable-background:new 0 0 60.025 60.025;"
   xml:space="preserve"
   sodipodi:docname="why_insurance.svg"
   inkscape:version="1.2 (1:1.2+202205211824+da316b6974)"
   xmlns:inkscape="http://www.inkscape.org/namespaces/inkscape"
   xmlns:sodipodi="http://sodipodi.sourceforge.net/DTD/sodipodi-0.dtd"
   xmlns="http://www.w3.org/2000/svg"
   xmlns:svg="http://www.w3.org/2000/svg"><defs
   id="defs81" /><sodipodi:namedview
   id="namedview79"
   pagecolor="#ffffff"
   bordercolor="#000000"
   borderopacity="0.25"
   inkscape:showpageshadow="2"
   inkscape:pageopacity="0.0"
   inkscape:pagecheckerboard="0"
   inkscape:deskcolor="#d1d1d1"
   showgrid="false"
   inkscape:zoom="7.930029"
   inkscape:cx="26.54467"
   inkscape:cy="30.138604"
   inkscape:window-width="1366"
   inkscape:window-height="704"
   inkscape:window-x="0"
   inkscape:window-y="0"
   inkscape:window-maximized="1"
   inkscape:current-layer="Capa_1" />
<g
   id="g46"
   style="fill:#2e2eff;fill-opacity:1">
	<g
   id="g44"
   style="fill:#2e2eff;fill-opacity:1">
		<rect
   x="28.012"
   y="9.025"
   width="4"
   height="2"
   id="rect2"
   style="fill:#2e2eff;fill-opacity:1" />
		<rect
   x="25.012"
   y="13.025"
   width="10"
   height="2"
   id="rect4"
   style="fill:#2e2eff;fill-opacity:1" />
		<rect
   x="11.012"
   y="27.025"
   width="2"
   height="2"
   id="rect6"
   style="fill:#2e2eff;fill-opacity:1" />
		<rect
   x="47.012"
   y="27.025"
   width="2"
   height="2"
   id="rect8"
   style="fill:#2e2eff;fill-opacity:1" />
		<rect
   x="47.012"
   y="31.025"
   width="2"
   height="2"
   id="rect10"
   style="fill:#2e2eff;fill-opacity:1" />
		<rect
   x="47.012"
   y="35.025"
   width="2"
   height="2"
   id="rect12"
   style="fill:#2e2eff;fill-opacity:1" />
		<rect
   x="47.012"
   y="39.025"
   width="2"
   height="2"
   id="rect14"
   style="fill:#2e2eff;fill-opacity:1" />
		<rect
   x="47.012"
   y="43.025"
   width="2"
   height="2"
   id="rect16"
   style="fill:#2e2eff;fill-opacity:1" />
		<rect
   x="11.012"
   y="31.025"
   width="2"
   height="2"
   id="rect18"
   style="fill:#2e2eff;fill-opacity:1" />
		<rect
   x="11.012"
   y="35.025"
   width="2"
   height="2"
   id="rect20"
   style="fill:#2e2eff;fill-opacity:1" />
		<rect
   x="11.012"
   y="39.025"
   width="2"
   height="2"
   id="rect22"
   style="fill:#2e2eff;fill-opacity:1" />
		<rect
   x="11.012"
   y="43.025"
   width="2"
   height="2"
   id="rect24"
   style="fill:#2e2eff;fill-opacity:1" />
		<path
   d="M59.012,33.025h-6v-8h3c0.6,0,1-0.4,1-1v-3.7c0-0.3-0.1-0.6-0.4-0.8l-26-19.3c-0.4-0.3-0.8-0.3-1.2,0l-25.3,18.8h-0.1v0.1    l-0.6,0.4c-0.3,0.2-0.4,0.5-0.4,0.8v3.7c0,0.6,0.4,1,1,1h3v8h-6c-0.6,0-1,0.4-1,1v19h2v-13h5v13h2v-4h6v3c0,0.4,0.2,0.7,0.6,0.9    l14,7c0.1,0.1,0.2,0.1,0.4,0.1s0.3,0,0.4-0.1l14-7c0.4-0.2,0.6-0.5,0.6-0.9v-3h6v4h2v-13h5v13h2v-19    C60.012,33.425,59.612,33.025,59.012,33.025z M5.012,21.025h40v-2h-37.6l22.6-16.8l25,18.6v2.2h-3h-44h-3V21.025z M2.012,38.025    v-3h5v3H2.012z M43.012,51.425l-13,6.5l-13-6.5v-22.4h26V51.425z M45.012,47.025v-19c0-0.6-0.4-1-1-1h-28c-0.6,0-1,0.4-1,1v19h-6    v-22h42v22H45.012z M53.012,38.025v-3h5v3H53.012z"
   id="path26"
   style="fill:#2e2eff;fill-opacity:1" />
		<path
   d="M30.012,52.025c4.4,0,8-3.6,8-8s-3.6-8-8-8s-8,3.6-8,8S25.612,52.025,30.012,52.025z M30.012,38.025c3.3,0,6,2.7,6,6    s-2.7,6-6,6s-6-2.7-6-6S26.713,38.025,30.012,38.025z"
   id="path28"
   style="fill:#2e2eff;fill-opacity:1" />
		<path
   d="M29.012,47.025c0.3,0,0.5-0.1,0.7-0.3l4-4l-1.4-1.4l-3.3,3.3l-1.3-1.3l-1.4,1.4l2,2    C28.512,46.925,28.713,47.025,29.012,47.025z"
   id="path30"
   style="fill:#2e2eff;fill-opacity:1" />
		<rect
   x="19.012"
   y="31.025"
   width="2"
   height="2"
   id="rect32"
   style="fill:#2e2eff;fill-opacity:1" />
		<rect
   x="23.012"
   y="31.025"
   width="2"
   height="2"
   id="rect34"
   style="fill:#2e2eff;fill-opacity:1" />
		<rect
   x="27.012"
   y="31.025"
   width="2"
   height="2"
   id="rect36"
   style="fill:#2e2eff;fill-opacity:1" />
		<rect
   x="31.012"
   y="31.025"
   width="2"
   height="2"
   id="rect38"
   style="fill:#2e2eff;fill-opacity:1" />
		<rect
   x="35.012"
   y="31.025"
   width="2"
   height="2"
   id="rect40"
   style="fill:#2e2eff;fill-opacity:1" />
		<rect
   x="39.012"
   y="31.025"
   width="2"
   height="2"
   id="rect42"
   style="fill:#2e2eff;fill-opacity:1" />
	</g>
</g>
<g
   id="g48"
   style="fill:#2e2eff;fill-opacity:1">
</g>
<g
   id="g50"
   style="fill:#2e2eff;fill-opacity:1">
</g>
<g
   id="g52"
   style="fill:#2e2eff;fill-opacity:1">
</g>
<g
   id="g54"
   style="fill:#2e2eff;fill-opacity:1">
</g>
<g
   id="g56"
   style="fill:#2e2eff;fill-opacity:1">
</g>
<g
   id="g58"
   style="fill:#2e2eff;fill-opacity:1">
</g>
<g
   id="g60"
   style="fill:#2e2eff;fill-opacity:1">
</g>
<g
   id="g62"
   style="fill:#2e2eff;fill-opacity:1">
</g>
<g
   id="g64"
   style="fill:#2e2eff;fill-opacity:1">
</g>
<g
   id="g66"
   style="fill:#2e2eff;fill-opacity:1">
</g>
<g
   id="g68"
   style="fill:#2e2eff;fill-opacity:1">
</g>
<g
   id="g70"
   style="fill:#2e2eff;fill-opacity:1">
</g>
<g
   id="g72"
   style="fill:#2e2eff;fill-opacity:1">
</g>
<g
   id="g74"
   style="fill:#2e2eff;fill-opacity:1">
</g>
<g
   id="g76"
   style="fill:#2e2eff;fill-opacity:1">
</g>
</svg>
