<?xml version="1.0" encoding="UTF-8" standalone="no"?>
<svg
   width="24"
   height="24"
   version="1.1"
   id="svg6"
   sodipodi:docname="why_price.svg"
   inkscape:version="1.2 (1:1.2+202205211824+da316b6974)"
   xmlns:inkscape="http://www.inkscape.org/namespaces/inkscape"
   xmlns:sodipodi="http://sodipodi.sourceforge.net/DTD/sodipodi-0.dtd"
   xmlns="http://www.w3.org/2000/svg"
   xmlns:svg="http://www.w3.org/2000/svg">
  <defs
     id="defs10" />
  <sodipodi:namedview
     id="namedview8"
     pagecolor="#ffffff"
     bordercolor="#000000"
     borderopacity="0.25"
     inkscape:showpageshadow="2"
     inkscape:pageopacity="0.0"
     inkscape:pagecheckerboard="0"
     inkscape:deskcolor="#d1d1d1"
     showgrid="false"
     inkscape:zoom="19.708333"
     inkscape:cx="11.289641"
     inkscape:cy="12.02537"
     inkscape:window-width="1366"
     inkscape:window-height="704"
     inkscape:window-x="0"
     inkscape:window-y="0"
     inkscape:window-maximized="1"
     inkscape:current-layer="svg6" />
  <path
     d="M12 2a10 10 0 1 0 10 10A10 10 0 0 0 12 2zm0 18a8 8 0 1 1 8-8 8 8 0 0 1-8 8z"
     id="path2"
     style="fill:#2e2eff;fill-opacity:1" />
  <path
     d="M12 11c-2 0-2-.63-2-1s.7-1 2-1 1.39.64 1.4 1h2A3 3 0 0 0 13 7.12V6h-2v1.09C9 7.42 8 8.71 8 10c0 1.12.52 3 4 3 2 0 2 .68 2 1s-.62 1-2 1c-1.84 0-2-.86-2-1H8c0 .92.66 2.55 3 2.92V18h2v-1.08c2-.34 3-1.63 3-2.92 0-1.12-.52-3-4-3z"
     id="path4"
     style="fill:#2e2eff;fill-opacity:1" />
</svg>
